<?xml version="1.0" encoding="utf-8"?>
<!-- Generator: Adobe Illustrator 18.1.1, SVG Export Plug-In . SVG Version: 6.00 Build 0)  -->
<!DOCTYPE svg PUBLIC "-//W3C//DTD SVG 1.1//EN" "http://www.w3.org/Graphics/SVG/1.1/DTD/svg11.dtd">
<svg version="1.1" id="Layer_1" xmlns="http://www.w3.org/2000/svg" xmlns:xlink="http://www.w3.org/1999/xlink" x="0px" y="0px"
	 viewBox="0 0 640 480" enable-background="new 0 0 640 480" xml:space="preserve">
<polyline fill="none" stroke="#00B913" stroke-miterlimit="10" points="71.8,217.7 99.1,219.3 111.2,197.5 95.4,206.7 101,225.1 
	119.2,233.2 172.4,214.4 178.9,197.3 174.3,192.6 152.7,199.6 154.4,223.5 174.6,237.9 217.3,232.9 226.3,193.1 222.6,190.1 
	218.9,191.7 200.9,215.2 208.1,242.4 229.8,246.4 286.6,207.2 298.3,174.3 284.3,162.4 256,160.6 249.9,176.8 265.7,236.6 
	297.6,265.1 333.3,247.5 348.7,189.3 345.1,183.3 329.2,188.1 309.2,217.1 311.7,251.3 337.8,267.6 368.9,264.1 409.2,216.1 
	399.1,200.2 390,201.4 366.8,243.3 401.1,277.6 433.8,273.2 469.2,244 "/>
</svg>
